<?xml version="1.0" encoding="utf-8"?>
<!-- Generator: Adobe Illustrator 16.0.0, SVG Export Plug-In . SVG Version: 6.00 Build 0)  -->
<!DOCTYPE svg PUBLIC "-//W3C//DTD SVG 1.1//EN" "http://www.w3.org/Graphics/SVG/1.1/DTD/svg11.dtd">
<svg version="1.1" xmlns="http://www.w3.org/2000/svg" xmlns:xlink="http://www.w3.org/1999/xlink" x="0px" y="0px"
	 width="1896.871px" height="465.751px" viewBox="0 0 1896.871 465.751" enable-background="new 0 0 1896.871 465.751"
	 xml:space="preserve">
<g id="Redux-Blockchain">
	<g id="connectors">
		<polygon fill="#F48993" points="205.237,316.009 306.434,281.275 305.197,278.064 203.902,312.551 		"/>
		<polygon fill="#F48993" points="230.646,197.816 315.502,262.982 317.495,260.178 232.792,194.794 		"/>
		<polygon fill="#F48993" points="213.507,198.847 190.655,303.369 194.04,303.979 217.155,199.501 		"/>
		<path fill="#F48993" d="M359.442,285.959c0,0,52.846,25.092,46.752,57.759c-7.344,39.387-85.605,49.381-85.605,49.381l3.516,3.643
			c0,0,74.381-11.885,85.091-48.702c10.716-36.837-48.985-67.079-48.985-67.079L359.442,285.959z"/>
		<path fill="#F48993" d="M169.895,346.457c0,0-47.107,34.686-73.006,13.862c-31.224-25.105-3.003-98.78-3.003-98.78l-4.872,1.373
			c0,0-24.719,71.15,2.649,98.006c27.383,26.869,82.273-11.419,82.273-11.419L169.895,346.457z"/>
		<path fill="#F48993" d="M208.909,149.233c0,0-6.724-58.112,24.21-70.256c37.294-14.642,87.239,46.432,87.239,46.432l3.043-3.247
			c0,0-51.31-58.444-88.208-48.019c-36.918,10.433-30.932,77.089-30.932,77.089L208.909,149.233z"/>
	</g>
	<g id="main">
		<linearGradient id="SVGID_1_" gradientUnits="userSpaceOnUse" x1="23.1567" y1="344.1206" x2="364.7637" y2="344.1206">
			<stop  offset="0" style="stop-color:#F15B61"/>
			<stop  offset="0.058" style="stop-color:#DC5B69"/>
			<stop  offset="0.1928" style="stop-color:#B65979"/>
			<stop  offset="0.3296" style="stop-color:#955787"/>
			<stop  offset="0.4657" style="stop-color:#795691"/>
			<stop  offset="0.6012" style="stop-color:#615599"/>
			<stop  offset="0.7358" style="stop-color:#4D549E"/>
			<stop  offset="0.8692" style="stop-color:#3E54A2"/>
			<stop  offset="1" style="stop-color:#3953A5"/>
		</linearGradient>
		<path fill="url(#SVGID_1_)" d="M364.745,279.421c-0.576-17.254-14.953-31.056-32.206-31.056h-1.15
			c-17.828,0.573-31.631,15.527-31.056,33.356c0.574,8.626,4.025,16.103,9.202,21.277c-19.554,38.533-49.459,66.713-94.318,90.291
			c-30.48,16.104-62.111,21.855-93.742,17.83c-25.879-3.451-46.009-14.953-58.661-33.933c-18.402-28.179-20.128-58.659-4.6-89.14
			c3.738-7.479,8.213-14.286,12.93-20.322c-8.972-2.771-16.263-9.366-19.971-17.883C11.258,303.823,19.992,362.24,40.385,393.291
			c18.979,28.757,57.51,46.585,100.068,46.585c11.503,0,23.004-1.15,34.507-4.026c73.613-14.378,129.398-58.085,161.03-123.072
			C352.668,311.051,365.319,296.673,364.745,279.421z M332.797,300.347c-10.769,0-19.498-8.729-19.498-19.498
			c0-10.768,8.729-19.498,19.498-19.498s19.498,8.73,19.498,19.498C352.295,291.618,343.565,300.347,332.797,300.347z"/>
		<linearGradient id="SVGID_2_" gradientUnits="userSpaceOnUse" x1="48.5156" y1="237.314" x2="112.7363" y2="237.314">
			<stop  offset="0" style="stop-color:#F15B61"/>
			<stop  offset="0.058" style="stop-color:#DC5B69"/>
			<stop  offset="0.1928" style="stop-color:#B65979"/>
			<stop  offset="0.3296" style="stop-color:#955787"/>
			<stop  offset="0.4657" style="stop-color:#795691"/>
			<stop  offset="0.6012" style="stop-color:#615599"/>
			<stop  offset="0.7358" style="stop-color:#4D549E"/>
			<stop  offset="0.8692" style="stop-color:#3E54A2"/>
			<stop  offset="1" style="stop-color:#3953A5"/>
		</linearGradient>
		<path fill="url(#SVGID_2_)" d="M80.626,205.204c-17.734,0-32.11,14.377-32.11,32.11c0,17.734,14.376,32.11,32.11,32.11
			c17.733,0,32.11-14.376,32.11-32.11C112.736,219.581,98.359,205.204,80.626,205.204z M80.626,256.928
			c-10.832,0-19.613-8.782-19.613-19.614s8.781-19.613,19.613-19.613s19.613,8.781,19.613,19.613S91.458,256.928,80.626,256.928z"/>
		<linearGradient id="SVGID_3_" gradientUnits="userSpaceOnUse" x1="185.8682" y1="293.5103" x2="474.7812" y2="293.5103">
			<stop  offset="0" style="stop-color:#F15B61"/>
			<stop  offset="0.058" style="stop-color:#DC5B69"/>
			<stop  offset="0.1928" style="stop-color:#B65979"/>
			<stop  offset="0.3296" style="stop-color:#955787"/>
			<stop  offset="0.4657" style="stop-color:#795691"/>
			<stop  offset="0.6012" style="stop-color:#615599"/>
			<stop  offset="0.7358" style="stop-color:#4D549E"/>
			<stop  offset="0.8692" style="stop-color:#3E54A2"/>
			<stop  offset="1" style="stop-color:#3953A5"/>
		</linearGradient>
		<path fill="url(#SVGID_3_)" d="M437.209,241.463c-43.708-51.185-108.12-79.364-181.733-79.364h-9.202
			c-5.177-10.352-16.104-17.254-28.181-17.254h-1.15c-17.828,0.575-31.631,15.529-31.057,33.356
			c0.576,17.254,14.954,31.056,32.207,31.056h1.15c12.652-0.574,23.58-8.627,28.18-19.553h10.353
			c43.708,0,85.115,12.652,122.498,37.381c28.755,18.979,49.458,43.709,60.96,73.613c9.777,24.155,9.202,47.734-1.149,67.863
			c-16.104,30.48-43.133,47.158-78.79,47.158c-8.459,0-16.774-0.876-24.458-2.346c0.391,2.001,0.598,4.067,0.598,6.184
			c0,7.885-2.845,15.105-7.562,20.694c7.883,1.182,15.677,1.923,23.371,1.923c55.21,0,96.042-30.479,111.571-60.96
			C481.491,347.858,480.342,290.348,437.209,241.463z M217.708,196.639c-10.808,0-19.569-8.763-19.569-19.571
			c0-4.103,1.265-7.909,3.422-11.055c3.497-5.227,9.453-8.67,16.216-8.67c10.504,0,19.064,8.31,19.477,18.713
			c0.018,0.335,0.025,0.673,0.025,1.012C237.278,187.876,228.517,196.639,217.708,196.639z"/>
		<linearGradient id="SVGID_4_" gradientUnits="userSpaceOnUse" x1="272.9873" y1="419.7427" x2="337.8057" y2="419.7427">
			<stop  offset="0" style="stop-color:#F15B61"/>
			<stop  offset="0.058" style="stop-color:#DC5B69"/>
			<stop  offset="0.1928" style="stop-color:#B65979"/>
			<stop  offset="0.3296" style="stop-color:#955787"/>
			<stop  offset="0.4657" style="stop-color:#795691"/>
			<stop  offset="0.6012" style="stop-color:#615599"/>
			<stop  offset="0.7358" style="stop-color:#4D549E"/>
			<stop  offset="0.8692" style="stop-color:#3E54A2"/>
			<stop  offset="1" style="stop-color:#3953A5"/>
		</linearGradient>
		<path fill="url(#SVGID_4_)" d="M305.396,387.333c-17.899,0-32.409,14.51-32.409,32.408c0,17.9,14.51,32.41,32.409,32.41
			c17.898,0,32.409-14.51,32.409-32.41C337.806,401.843,323.295,387.333,305.396,387.333z M305.396,439.38
			c-10.847,0-19.639-8.791-19.639-19.639c0-10.845,8.792-19.639,19.639-19.639c10.846,0,19.639,8.794,19.639,19.639
			C325.035,430.589,316.242,439.38,305.396,439.38z"/>
		<linearGradient id="SVGID_5_" gradientUnits="userSpaceOnUse" x1="113.1191" y1="183.3774" x2="354.8496" y2="183.3774">
			<stop  offset="0" style="stop-color:#F15B61"/>
			<stop  offset="0.058" style="stop-color:#DC5B69"/>
			<stop  offset="0.1928" style="stop-color:#B65979"/>
			<stop  offset="0.3296" style="stop-color:#955787"/>
			<stop  offset="0.4657" style="stop-color:#795691"/>
			<stop  offset="0.6012" style="stop-color:#615599"/>
			<stop  offset="0.7358" style="stop-color:#4D549E"/>
			<stop  offset="0.8692" style="stop-color:#3E54A2"/>
			<stop  offset="1" style="stop-color:#3953A5"/>
		</linearGradient>
		<path fill="url(#SVGID_5_)" d="M354.85,105.698c-10.697-31.089-26.916-54.197-46.104-69.547
			c-19.27-15.413-41.53-23.005-64.198-23.005c-25.88,0-50.753,9.346-71.528,25.592c-20.776,16.247-37.454,39.395-46.943,67
			c-13.228,36.807-15.528,72.895-10.496,106.754c5.032,33.858,17.397,65.491,33.5,93.384c-1.438,2.013-2.588,4.601-3.307,7.475
			c-0.719,2.876-1.007,6.04-0.719,9.203c0.286,8.625,4.025,16.39,9.849,21.997c5.822,5.606,13.73,9.058,22.357,9.058h0.574h0.576
			c8.914-0.286,16.821-4.169,22.429-10.207c5.607-6.04,8.914-14.233,8.626-23.147c-0.287-8.628-4.025-16.393-9.849-21.999
			c-5.822-5.607-13.731-9.059-22.356-9.059h-0.575h-0.575c-0.576,0-1.294,0-2.014,0.072c-0.719,0.072-1.438,0.216-2.013,0.504
			c-11.789-19.555-20.128-39.971-25.089-61.25c-4.96-21.278-6.542-43.42-4.816-66.424c1.151-17.254,4.601-33.356,10.28-48.237
			s13.587-28.54,23.651-40.904c8.338-10.64,20.561-18.547,33.428-23.867c12.868-5.32,26.383-8.052,37.311-8.339
			c22.86-0.432,40.492,9.393,53.779,23.47c13.286,14.076,22.225,32.404,27.703,48.979l0.014-0.003
			c5.65-4.948,13.043-7.953,21.143-7.953C351.314,105.245,353.104,105.405,354.85,105.698z M163.46,307.974
			c3.528-3.528,8.403-5.711,13.787-5.711c5.385,0,10.259,2.183,13.786,5.711c3.528,3.528,5.711,8.402,5.711,13.787
			c0,5.383-2.183,10.259-5.711,13.786c-3.527,3.529-8.401,5.712-13.786,5.712c-5.384,0-10.259-2.183-13.787-5.712
			c-3.528-3.527-5.71-8.403-5.71-13.786C157.75,316.376,159.932,311.502,163.46,307.974z"/>
		<linearGradient id="SVGID_6_" gradientUnits="userSpaceOnUse" x1="317.1904" y1="137.395" x2="381.7832" y2="137.395">
			<stop  offset="0" style="stop-color:#F15B61"/>
			<stop  offset="0.058" style="stop-color:#DC5B69"/>
			<stop  offset="0.1928" style="stop-color:#B65979"/>
			<stop  offset="0.3296" style="stop-color:#955787"/>
			<stop  offset="0.4657" style="stop-color:#795691"/>
			<stop  offset="0.6012" style="stop-color:#615599"/>
			<stop  offset="0.7358" style="stop-color:#4D549E"/>
			<stop  offset="0.8692" style="stop-color:#3E54A2"/>
			<stop  offset="1" style="stop-color:#3953A5"/>
		</linearGradient>
		<path fill="url(#SVGID_6_)" d="M349.487,105.099c-17.837,0-32.297,14.459-32.297,32.297c0,17.836,14.46,32.295,32.297,32.295
			s32.296-14.459,32.296-32.295C381.783,119.558,367.324,105.099,349.487,105.099z M349.302,157.042
			c-10.852,0-19.646-8.797-19.646-19.646c0-10.852,8.795-19.647,19.646-19.647c10.85,0,19.646,8.796,19.646,19.647
			C368.948,148.246,360.151,157.042,349.302,157.042z"/>
	</g>
</g>
<g id="Text">
	<g>
		<path d="M740.49,338.852h-37.169c-6.949,0-11.979-2.651-15.087-7.955l-37.854-61.033c-1.556-2.377-3.271-4.115-5.144-5.212
			c-1.875-1.098-4.642-1.646-8.298-1.646h-13.989v75.847h-41.146V139.84h62.542c13.897,0,25.785,1.44,35.66,4.321
			c9.875,2.88,17.968,6.881,24.276,12.001c6.31,5.121,10.926,11.225,13.853,18.31c2.926,7.087,4.39,14.882,4.39,23.385
			c0,6.584-0.938,12.824-2.812,18.722c-1.876,5.897-4.595,11.271-8.161,16.116c-3.566,4.847-7.955,9.144-13.167,12.893
			c-5.212,3.75-11.156,6.768-17.83,9.052c2.651,1.464,5.12,3.223,7.406,5.28c2.285,2.058,4.342,4.505,6.172,7.338L740.49,338.852z
			 M644.07,234.066c6.674,0,12.435-0.845,17.282-2.537c4.845-1.691,8.822-4.022,11.932-6.995c3.107-2.97,5.395-6.468,6.858-10.492
			c1.461-4.022,2.194-8.411,2.194-13.167c0-9.416-3.133-16.732-9.396-21.944c-6.264-5.212-15.796-7.818-28.597-7.818h-21.396v62.954
			H644.07z"/>
		<path d="M775.601,273.978c1.188,13.259,4.959,22.952,11.315,29.077c6.354,6.127,14.651,9.188,24.894,9.188
			c5.212,0,9.714-0.617,13.51-1.852c3.793-1.234,7.132-2.605,10.012-4.114c2.881-1.509,5.486-2.88,7.818-4.114
			c2.331-1.234,4.64-1.852,6.926-1.852c2.926,0,5.212,1.097,6.858,3.291l10.972,13.716c-4.024,4.663-8.458,8.527-13.304,11.59
			c-4.848,3.064-9.875,5.485-15.087,7.269s-10.471,3.018-15.772,3.703c-5.305,0.687-10.424,1.029-15.361,1.029
			c-9.875,0-19.088-1.625-27.637-4.869c-8.551-3.245-16.002-8.045-22.356-14.401c-6.356-6.354-11.362-14.24-15.019-23.659
			c-3.658-9.417-5.486-20.344-5.486-32.78c0-9.601,1.577-18.652,4.732-27.156c3.154-8.504,7.702-15.91,13.646-22.219
			c5.942-6.31,13.167-11.315,21.671-15.019c8.503-3.703,18.104-5.555,28.802-5.555c9.053,0,17.396,1.439,25.031,4.32
			c7.634,2.88,14.217,7.063,19.75,12.55c5.531,5.486,9.828,12.23,12.893,20.229c3.062,8.003,4.595,17.123,4.595,27.363
			c0,2.835-0.138,5.166-0.411,6.994c-0.274,1.83-0.733,3.292-1.372,4.39c-0.641,1.097-1.509,1.852-2.605,2.263
			c-1.098,0.411-2.517,0.617-4.252,0.617H775.601z M835.126,251.485c0-3.931-0.527-7.681-1.577-11.247
			c-1.053-3.565-2.722-6.721-5.007-9.464c-2.286-2.743-5.167-4.914-8.641-6.515c-3.476-1.599-7.636-2.4-12.48-2.4
			c-9.053,0-16.14,2.562-21.26,7.681c-5.121,5.122-8.458,12.437-10.012,21.945H835.126z"/>
		<path d="M1017.677,134.355v204.497H994.36c-4.847,0-7.954-2.194-9.326-6.583l-3.154-12.345c-2.835,3.11-5.829,5.945-8.983,8.504
			c-3.155,2.561-6.562,4.779-10.219,6.652c-3.658,1.875-7.59,3.315-11.795,4.32c-4.207,1.005-8.778,1.509-13.716,1.509
			c-7.59,0-14.538-1.602-20.847-4.801c-6.31-3.199-11.774-7.887-16.391-14.059c-4.618-6.172-8.208-13.736-10.767-22.699
			c-2.561-8.96-3.84-19.201-3.84-30.722c0-10.515,1.439-20.3,4.32-29.352c2.88-9.052,6.971-16.87,12.275-23.453
			c5.302-6.584,11.703-11.748,19.201-15.499c7.496-3.748,15.818-5.623,24.962-5.623c7.681,0,14.148,1.145,19.408,3.429
			c5.257,2.287,10.033,5.396,14.332,9.326v-73.103H1017.677z M979.822,234.204c-3.565-4.115-7.43-6.995-11.59-8.642
			c-4.161-1.646-8.571-2.469-13.235-2.469c-4.573,0-8.732,0.87-12.48,2.606c-3.751,1.738-6.974,4.457-9.67,8.16
			c-2.698,3.703-4.778,8.436-6.24,14.196c-1.464,5.76-2.194,12.618-2.194,20.573c0,7.864,0.594,14.538,1.783,20.024
			c1.187,5.486,2.901,9.922,5.143,13.304c2.24,3.384,4.959,5.829,8.161,7.338c3.199,1.509,6.766,2.263,10.698,2.263
			c6.673,0,12.275-1.324,16.801-3.978c4.526-2.65,8.8-6.398,12.824-11.246V234.204z"/>
		<path d="M1173.21,197.446v141.406h-23.316c-4.848,0-7.955-2.194-9.326-6.583l-2.47-9.876c-2.835,2.743-5.76,5.26-8.777,7.544
			c-3.018,2.286-6.24,4.252-9.67,5.897c-3.429,1.646-7.132,2.928-11.109,3.841s-8.298,1.371-12.961,1.371
			c-7.681,0-14.517-1.326-20.505-3.978c-5.989-2.65-10.995-6.354-15.018-11.109c-4.025-4.753-7.088-10.424-9.189-17.007
			c-2.104-6.584-3.155-13.806-3.155-21.671v-89.836h37.855v89.836c0,7.865,1.804,13.969,5.417,18.311
			c3.611,4.344,8.983,6.515,16.116,6.515c5.302,0,10.286-1.166,14.949-3.497c4.663-2.332,9.098-5.508,13.305-9.532V197.446H1173.21z
			"/>
		<path d="M1334.914,338.852h-36.346c-2.743,0-4.961-0.686-6.652-2.058c-1.692-1.371-3.041-2.97-4.046-4.8l-27.842-46.496
			c-0.823,3.11-2.013,5.854-3.566,8.229l-23.865,38.267c-1.097,1.737-2.447,3.315-4.046,4.731c-1.601,1.419-3.635,2.126-6.104,2.126
			h-33.739l48.004-72.966l-46.084-68.44h36.346c2.743,0,4.753,0.366,6.035,1.097c1.279,0.733,2.421,1.921,3.429,3.566l27.705,44.85
			c0.456-1.554,1.05-3.131,1.783-4.731c0.73-1.599,1.599-3.177,2.605-4.732l21.259-34.7c2.195-3.565,5.028-5.349,8.504-5.349h34.7
			l-46.084,66.794L1334.914,338.852z"/>
	</g>
	<g>
		<path d="M1404.578,264.137c4.891,0,9.075,0.465,12.556,1.395c3.479,0.93,6.329,2.257,8.551,3.979
			c2.222,1.723,3.85,3.807,4.883,6.252c1.033,2.446,1.55,5.202,1.55,8.268c0,1.757-0.258,3.436-0.774,5.037
			c-0.517,1.603-1.317,3.101-2.403,4.496c-1.085,1.395-2.463,2.66-4.133,3.797c-1.672,1.138-3.661,2.102-5.968,2.894
			c10.264,2.309,15.397,7.854,15.397,16.638c0,3.17-0.604,6.098-1.809,8.784c-1.206,2.687-2.963,5.004-5.271,6.949
			c-2.309,1.947-5.15,3.471-8.525,4.573c-3.376,1.103-7.233,1.653-11.574,1.653h-28.212v-74.714H1404.578z M1392.745,274.884v21.598
			h11.058c4.754,0,8.345-0.86,10.773-2.583c2.428-1.723,3.643-4.461,3.643-8.216c0-3.893-1.104-6.665-3.308-8.319
			c-2.204-1.653-5.649-2.479-10.333-2.479H1392.745z M1406.8,328c2.583,0,4.753-0.311,6.51-0.93c1.757-0.62,3.16-1.447,4.211-2.48
			s1.809-2.239,2.273-3.617c0.466-1.377,0.698-2.842,0.698-4.392c0-1.619-0.259-3.074-0.775-4.366s-1.326-2.394-2.429-3.307
			c-1.103-0.912-2.523-1.61-4.263-2.093s-3.832-0.724-6.277-0.724h-14.003V328H1406.8z"/>
		<path d="M1456.918,262.07v76.781h-12.762V262.07H1456.918z"/>
		<path d="M1493.138,285.011c3.927,0,7.5,0.638,10.722,1.912c3.221,1.274,5.976,3.083,8.267,5.425
			c2.291,2.343,4.057,5.202,5.297,8.577c1.239,3.377,1.859,7.148,1.859,11.315c0,4.203-0.62,7.992-1.859,11.368
			c-1.24,3.376-3.006,6.252-5.297,8.629c-2.291,2.376-5.046,4.202-8.267,5.477c-3.222,1.274-6.795,1.912-10.722,1.912
			c-3.962,0-7.562-0.638-10.799-1.912c-3.238-1.274-6.003-3.101-8.293-5.477c-2.291-2.377-4.065-5.253-5.322-8.629
			c-1.258-3.376-1.886-7.165-1.886-11.368c0-4.167,0.628-7.938,1.886-11.315c1.257-3.375,3.031-6.234,5.322-8.577
			c2.29-2.342,5.055-4.15,8.293-5.425C1485.576,285.649,1489.176,285.011,1493.138,285.011z M1493.138,329.809
			c4.409,0,7.673-1.48,9.791-4.443c2.119-2.963,3.178-7.303,3.178-13.021c0-5.717-1.059-10.075-3.178-13.072
			c-2.118-2.997-5.382-4.495-9.791-4.495c-4.479,0-7.794,1.507-9.946,4.521c-2.153,3.015-3.229,7.362-3.229,13.046
			s1.076,10.017,3.229,12.995C1485.344,328.32,1488.659,329.809,1493.138,329.809z"/>
		<path d="M1567.025,297.05c-0.38,0.482-0.75,0.861-1.111,1.137c-0.361,0.276-0.887,0.413-1.576,0.413
			c-0.654,0-1.291-0.197-1.911-0.594c-0.62-0.396-1.361-0.844-2.222-1.344c-0.862-0.499-1.887-0.947-3.075-1.343
			c-1.188-0.396-2.66-0.595-4.417-0.595c-2.24,0-4.203,0.405-5.891,1.214c-1.688,0.811-3.092,1.973-4.211,3.488
			c-1.12,1.516-1.956,3.351-2.506,5.503c-0.552,2.153-0.827,4.59-0.827,7.311c0,2.825,0.301,5.34,0.904,7.544
			c0.603,2.205,1.473,4.057,2.609,5.555s2.514,2.636,4.134,3.41c1.618,0.775,3.444,1.163,5.477,1.163s3.677-0.25,4.935-0.75
			c1.257-0.498,2.316-1.05,3.178-1.653c0.86-0.602,1.609-1.153,2.248-1.653c0.637-0.499,1.352-0.749,2.144-0.749
			c1.034,0,1.809,0.396,2.325,1.188l3.669,4.65c-1.413,1.653-2.945,3.04-4.599,4.159c-1.653,1.12-3.367,2.016-5.142,2.687
			c-1.774,0.672-3.6,1.146-5.477,1.421c-1.878,0.275-3.746,0.414-5.606,0.414c-3.272,0-6.355-0.612-9.249-1.835
			c-2.894-1.222-5.425-3.005-7.595-5.348c-2.171-2.342-3.885-5.21-5.142-8.603c-1.258-3.393-1.886-7.26-1.886-11.601
			c0-3.892,0.56-7.5,1.68-10.824c1.118-3.324,2.764-6.2,4.934-8.629c2.171-2.429,4.857-4.331,8.061-5.71
			c3.204-1.377,6.89-2.066,11.058-2.066c3.961,0,7.432,0.638,10.411,1.912s5.658,3.1,8.035,5.477L1567.025,297.05z"/>
		<path d="M1591.619,262.07v43.971h2.377c0.86,0,1.541-0.111,2.04-0.336c0.499-0.224,1.008-0.68,1.524-1.369l13.176-16.275
			c0.551-0.724,1.163-1.274,1.835-1.653c0.671-0.379,1.541-0.568,2.609-0.568h11.677l-16.482,19.686
			c-1.172,1.551-2.446,2.738-3.823,3.565c0.723,0.517,1.369,1.12,1.938,1.809c0.568,0.689,1.11,1.43,1.627,2.222l17.671,25.731
			h-11.521c-1,0-1.86-0.163-2.584-0.491c-0.724-0.326-1.326-0.921-1.809-1.782l-13.537-20.1c-0.482-0.792-0.981-1.309-1.498-1.55
			c-0.518-0.241-1.292-0.362-2.325-0.362h-2.894v24.285h-12.763V262.07H1591.619z"/>
		<path d="M1669.382,297.05c-0.38,0.482-0.75,0.861-1.111,1.137c-0.361,0.276-0.887,0.413-1.576,0.413
			c-0.654,0-1.291-0.197-1.911-0.594c-0.62-0.396-1.361-0.844-2.222-1.344c-0.862-0.499-1.887-0.947-3.075-1.343
			c-1.188-0.396-2.66-0.595-4.417-0.595c-2.24,0-4.203,0.405-5.891,1.214c-1.688,0.811-3.092,1.973-4.211,3.488
			c-1.12,1.516-1.956,3.351-2.506,5.503c-0.552,2.153-0.827,4.59-0.827,7.311c0,2.825,0.301,5.34,0.904,7.544
			c0.603,2.205,1.473,4.057,2.609,5.555s2.514,2.636,4.134,3.41c1.618,0.775,3.444,1.163,5.477,1.163s3.677-0.25,4.935-0.75
			c1.257-0.498,2.316-1.05,3.178-1.653c0.86-0.602,1.609-1.153,2.248-1.653c0.637-0.499,1.352-0.749,2.144-0.749
			c1.034,0,1.809,0.396,2.325,1.188l3.669,4.65c-1.413,1.653-2.945,3.04-4.599,4.159c-1.653,1.12-3.367,2.016-5.142,2.687
			c-1.774,0.672-3.6,1.146-5.477,1.421c-1.878,0.275-3.746,0.414-5.606,0.414c-3.272,0-6.355-0.612-9.249-1.835
			c-2.894-1.222-5.425-3.005-7.595-5.348c-2.171-2.342-3.885-5.21-5.142-8.603c-1.258-3.393-1.886-7.26-1.886-11.601
			c0-3.892,0.56-7.5,1.68-10.824c1.118-3.324,2.764-6.2,4.934-8.629c2.171-2.429,4.857-4.331,8.061-5.71
			c3.204-1.377,6.89-2.066,11.058-2.066c3.961,0,7.432,0.638,10.411,1.912s5.658,3.1,8.035,5.477L1669.382,297.05z"/>
		<path d="M1693.976,291.522c2.066-1.929,4.34-3.496,6.82-4.702c2.479-1.205,5.391-1.809,8.732-1.809
			c2.893,0,5.459,0.491,7.698,1.473s4.107,2.359,5.606,4.134c1.498,1.774,2.635,3.893,3.41,6.355
			c0.774,2.463,1.162,5.176,1.162,8.138v33.74h-12.762v-33.74c0-3.237-0.741-5.743-2.223-7.518s-3.737-2.661-6.769-2.661
			c-2.204,0-4.271,0.499-6.2,1.498c-1.93,1-3.755,2.36-5.477,4.082v38.339h-12.763V262.07h12.763V291.522z"/>
		<path d="M1738.256,293.227c6.098-5.581,13.435-8.371,22.012-8.371c3.1,0,5.872,0.509,8.318,1.524
			c2.445,1.017,4.513,2.429,6.2,4.237s2.972,3.971,3.85,6.484c0.879,2.515,1.317,5.271,1.317,8.267v33.482h-5.787
			c-1.206,0-2.136-0.181-2.79-0.543c-0.654-0.361-1.171-1.093-1.55-2.195l-1.137-3.824c-1.344,1.207-2.653,2.266-3.927,3.178
			c-1.275,0.913-2.602,1.68-3.979,2.3c-1.378,0.62-2.851,1.093-4.418,1.421c-1.567,0.327-3.299,0.491-5.192,0.491
			c-2.24,0-4.307-0.303-6.201-0.904c-1.895-0.603-3.531-1.507-4.908-2.713c-1.378-1.205-2.446-2.704-3.203-4.495
			c-0.759-1.791-1.137-3.876-1.137-6.252c0-1.344,0.224-2.679,0.671-4.005c0.447-1.325,1.18-2.592,2.196-3.798
			c1.016-1.205,2.333-2.342,3.953-3.41c1.618-1.067,3.607-1.997,5.968-2.79c2.358-0.792,5.106-1.438,8.241-1.938
			c3.134-0.499,6.717-0.801,10.747-0.904v-3.101c0-3.547-0.758-6.174-2.273-7.879c-1.517-1.705-3.703-2.558-6.562-2.558
			c-2.066,0-3.78,0.241-5.141,0.723c-1.361,0.483-2.558,1.025-3.591,1.628c-1.033,0.604-1.973,1.146-2.816,1.628
			c-0.845,0.482-1.782,0.724-2.815,0.724c-0.896,0-1.654-0.233-2.273-0.698c-0.62-0.465-1.12-1.008-1.499-1.627L1738.256,293.227z
			 M1767.501,316.22c-3.687,0.172-6.786,0.49-9.301,0.955c-2.515,0.466-4.529,1.06-6.045,1.783
			c-1.517,0.723-2.602,1.567-3.255,2.531c-0.655,0.965-0.982,2.016-0.982,3.152c0,2.239,0.663,3.841,1.989,4.805
			c1.326,0.965,3.057,1.447,5.193,1.447c2.617,0,4.883-0.474,6.794-1.421c1.912-0.947,3.78-2.385,5.606-4.314V316.22z"/>
		<path d="M1806.925,270.389c0,1.103-0.225,2.136-0.672,3.1c-0.448,0.965-1.042,1.809-1.782,2.532
			c-0.741,0.724-1.611,1.301-2.609,1.73c-1,0.432-2.067,0.646-3.204,0.646c-1.103,0-2.145-0.215-3.126-0.646
			c-0.981-0.43-1.834-1.007-2.558-1.73s-1.301-1.567-1.73-2.532c-0.432-0.964-0.646-1.997-0.646-3.1
			c0-1.137,0.215-2.204,0.646-3.204c0.43-0.998,1.007-1.86,1.73-2.583c0.724-0.724,1.576-1.3,2.558-1.731
			c0.981-0.43,2.023-0.646,3.126-0.646c1.137,0,2.204,0.216,3.204,0.646c0.998,0.432,1.868,1.008,2.609,1.731
			c0.74,0.723,1.334,1.585,1.782,2.583C1806.7,268.185,1806.925,269.252,1806.925,270.389z M1805.168,285.838v53.013h-12.814
			v-53.013H1805.168z"/>
		<path d="M1830.124,292.348c1.067-1.067,2.196-2.058,3.385-2.971c1.188-0.912,2.445-1.688,3.771-2.325
			c1.326-0.637,2.747-1.137,4.263-1.498c1.516-0.362,3.169-0.543,4.961-0.543c2.893,0,5.459,0.491,7.698,1.473
			s4.107,2.359,5.606,4.134c1.498,1.774,2.635,3.893,3.41,6.355c0.774,2.463,1.162,5.176,1.162,8.138v33.74h-12.762v-33.74
			c0-3.237-0.741-5.743-2.223-7.518s-3.737-2.661-6.769-2.661c-2.204,0-4.271,0.499-6.2,1.498c-1.93,1-3.755,2.36-5.477,4.082
			v38.339h-12.763v-53.013h7.802c1.653,0,2.739,0.774,3.256,2.325L1830.124,292.348z"/>
	</g>
	<g>
	</g>
	<g>
	</g>
	<g>
	</g>
	<g>
	</g>
	<g>
	</g>
	<g>
	</g>
</g>
</svg>
