<?xml version="1.0" encoding="utf-8"?>
<!-- Generator: Adobe Illustrator 16.0.0, SVG Export Plug-In . SVG Version: 6.00 Build 0)  -->
<!DOCTYPE svg PUBLIC "-//W3C//DTD SVG 1.1//EN" "http://www.w3.org/Graphics/SVG/1.1/DTD/svg11.dtd">
<svg version="1.1" id="Redux-Blockchain" xmlns="http://www.w3.org/2000/svg" xmlns:xlink="http://www.w3.org/1999/xlink" x="0px"
	 y="0px" width="1391.195px" height="1391.195px" viewBox="0 0 1391.195 1391.195" enable-background="new 0 0 1391.195 1391.195"
	 xml:space="preserve">
<g id="connectors">
	<polygon fill="#F48993" points="568.523,935.232 859.484,835.36 855.931,826.131 564.687,925.288 	"/>
	<polygon fill="#F48993" points="641.582,595.399 885.56,782.765 891.292,774.706 647.75,586.711 	"/>
	<polygon fill="#F48993" points="592.303,598.363 526.597,898.886 536.33,900.642 602.791,600.247 	"/>
	<path fill="#F48993" d="M1011.898,848.832c0,0,151.941,72.144,134.425,166.07c-21.118,113.244-246.134,141.98-246.134,141.98
		l10.104,10.475c0,0,213.86-34.175,244.653-140.029c30.812-105.917-140.842-192.87-140.842-192.87L1011.898,848.832z"/>
	<path fill="#F48993" d="M466.908,1022.774c0,0-135.445,99.729-209.907,39.856c-89.774-72.182-8.635-284.015-8.635-284.015
		l-14.009,3.946c0,0-71.071,204.577,7.616,281.791c78.733,77.254,236.556-32.832,236.556-32.832L466.908,1022.774z"/>
	<path fill="#F48993" d="M579.083,455.712c0,0-19.331-167.085,69.608-202.001c107.229-42.097,250.833,133.504,250.833,133.504
		l8.748-9.341c0,0-147.525-168.038-253.616-138.062c-106.148,29.996-88.937,221.647-88.937,221.647L579.083,455.712z"/>
</g>
<g id="main">
	<linearGradient id="SVGID_1_" gradientUnits="userSpaceOnUse" x1="45.0034" y1="1016.0562" x2="1027.1978" y2="1016.0562">
		<stop  offset="0" style="stop-color:#F15B61"/>
		<stop  offset="0.058" style="stop-color:#DC5B69"/>
		<stop  offset="0.1928" style="stop-color:#B65979"/>
		<stop  offset="0.3296" style="stop-color:#955787"/>
		<stop  offset="0.4657" style="stop-color:#795691"/>
		<stop  offset="0.6012" style="stop-color:#615599"/>
		<stop  offset="0.7358" style="stop-color:#4D549E"/>
		<stop  offset="0.8692" style="stop-color:#3E54A2"/>
		<stop  offset="1" style="stop-color:#3953A5"/>
	</linearGradient>
	<path fill="url(#SVGID_1_)" d="M1027.143,830.031c-1.652-49.605-42.989-89.291-92.597-89.291h-3.308
		c-51.26,1.652-90.946,44.646-89.291,95.909c1.65,24.8,11.573,46.298,26.456,61.177c-56.22,110.789-142.206,191.814-271.185,259.607
		c-87.64,46.302-178.585,62.837-269.528,51.263c-74.41-9.922-132.286-42.993-168.664-97.561
		c-52.914-81.023-57.873-168.66-13.228-256.3c10.749-21.502,23.616-41.075,37.177-58.431c-25.797-7.963-46.759-26.929-57.419-51.415
		c-114.767,155.201-89.652,323.164-31.019,412.443c54.567,82.682,165.354,133.939,287.718,133.939
		c33.072,0,66.142-3.305,99.214-11.576c211.654-41.338,372.051-167.006,462.998-353.858
		C992.419,920.975,1028.798,879.636,1027.143,830.031z M935.287,890.2c-30.961,0-56.059-25.098-56.059-56.062
		c0-30.962,25.098-56.061,56.059-56.061s56.061,25.099,56.061,56.061C991.347,865.102,966.248,890.2,935.287,890.2z"/>
	<linearGradient id="SVGID_2_" gradientUnits="userSpaceOnUse" x1="117.9175" y1="708.9653" x2="302.563" y2="708.9653">
		<stop  offset="0" style="stop-color:#F15B61"/>
		<stop  offset="0.058" style="stop-color:#DC5B69"/>
		<stop  offset="0.1928" style="stop-color:#B65979"/>
		<stop  offset="0.3296" style="stop-color:#955787"/>
		<stop  offset="0.4657" style="stop-color:#795691"/>
		<stop  offset="0.6012" style="stop-color:#615599"/>
		<stop  offset="0.7358" style="stop-color:#4D549E"/>
		<stop  offset="0.8692" style="stop-color:#3E54A2"/>
		<stop  offset="1" style="stop-color:#3953A5"/>
	</linearGradient>
	<path fill="url(#SVGID_2_)" d="M210.24,616.642c-50.988,0-92.322,41.335-92.322,92.323c0,50.989,41.334,92.323,92.322,92.323
		s92.323-41.334,92.323-92.323C302.563,657.977,261.228,616.642,210.24,616.642z M210.24,765.36
		c-31.144,0-56.393-25.249-56.393-56.395c0-31.145,25.249-56.393,56.393-56.393c31.146,0,56.395,25.248,56.395,56.393
		C266.634,740.111,241.386,765.36,210.24,765.36z"/>
	<linearGradient id="SVGID_3_" gradientUnits="userSpaceOnUse" x1="512.8374" y1="870.5415" x2="1343.5249" y2="870.5415">
		<stop  offset="0" style="stop-color:#F15B61"/>
		<stop  offset="0.058" style="stop-color:#DC5B69"/>
		<stop  offset="0.1928" style="stop-color:#B65979"/>
		<stop  offset="0.3296" style="stop-color:#955787"/>
		<stop  offset="0.4657" style="stop-color:#795691"/>
		<stop  offset="0.6012" style="stop-color:#615599"/>
		<stop  offset="0.7358" style="stop-color:#4D549E"/>
		<stop  offset="0.8692" style="stop-color:#3E54A2"/>
		<stop  offset="1" style="stop-color:#3953A5"/>
	</linearGradient>
	<path fill="url(#SVGID_3_)" d="M1235.493,720.897C1109.824,573.73,924.625,492.706,712.97,492.706h-26.457
		c-14.884-29.765-46.304-49.608-81.025-49.608h-3.308c-51.26,1.654-90.945,44.648-89.293,95.906
		c1.654,49.608,42.994,89.292,92.601,89.292h3.308c36.376-1.651,67.795-24.803,81.022-56.219h29.766
		c125.67,0,244.725,36.377,352.21,107.48c82.675,54.566,142.202,125.673,175.272,211.655
		c28.111,69.451,26.457,137.244-3.305,195.119c-46.302,87.638-124.017,135.592-226.539,135.592c-24.322,0-48.228-2.521-70.322-6.745
		c1.123,5.753,1.718,11.696,1.718,17.777c0,22.673-8.177,43.433-21.737,59.501c22.662,3.398,45.069,5.529,67.195,5.529
		c158.738,0,276.143-87.634,320.79-175.274C1362.817,1026.803,1359.51,861.449,1235.493,720.897z M604.382,592.015
		c-31.075,0-56.268-25.192-56.268-56.271c0-11.796,3.637-22.739,9.841-31.784c10.054-15.027,27.178-24.929,46.621-24.929
		c30.201,0,54.813,23.891,56.001,53.805c0.049,0.961,0.073,1.934,0.073,2.908C660.651,566.823,635.457,592.015,604.382,592.015z"/>
	<linearGradient id="SVGID_4_" gradientUnits="userSpaceOnUse" x1="763.3208" y1="1233.4878" x2="949.687" y2="1233.4878">
		<stop  offset="0" style="stop-color:#F15B61"/>
		<stop  offset="0.058" style="stop-color:#DC5B69"/>
		<stop  offset="0.1928" style="stop-color:#B65979"/>
		<stop  offset="0.3296" style="stop-color:#955787"/>
		<stop  offset="0.4657" style="stop-color:#795691"/>
		<stop  offset="0.6012" style="stop-color:#615599"/>
		<stop  offset="0.7358" style="stop-color:#4D549E"/>
		<stop  offset="0.8692" style="stop-color:#3E54A2"/>
		<stop  offset="1" style="stop-color:#3953A5"/>
	</linearGradient>
	<path fill="url(#SVGID_4_)" d="M856.504,1140.306c-51.463,0-93.184,41.718-93.184,93.182c0,51.463,41.721,93.183,93.184,93.183
		c51.464,0,93.183-41.72,93.183-93.183C949.687,1182.024,907.968,1140.306,856.504,1140.306z M856.504,1289.954
		c-31.185,0-56.466-25.28-56.466-56.466s25.281-56.466,56.466-56.466s56.466,25.28,56.466,56.466S887.689,1289.954,856.504,1289.954
		z"/>
	<linearGradient id="SVGID_5_" gradientUnits="userSpaceOnUse" x1="303.6655" y1="553.8872" x2="998.6938" y2="553.8872">
		<stop  offset="0" style="stop-color:#F15B61"/>
		<stop  offset="0.058" style="stop-color:#DC5B69"/>
		<stop  offset="0.1928" style="stop-color:#B65979"/>
		<stop  offset="0.3296" style="stop-color:#955787"/>
		<stop  offset="0.4657" style="stop-color:#795691"/>
		<stop  offset="0.6012" style="stop-color:#615599"/>
		<stop  offset="0.7358" style="stop-color:#4D549E"/>
		<stop  offset="0.8692" style="stop-color:#3E54A2"/>
		<stop  offset="1" style="stop-color:#3953A5"/>
	</linearGradient>
	<path fill="url(#SVGID_5_)" d="M998.694,330.541c-30.759-89.389-77.39-155.83-132.56-199.963
		c-55.401-44.316-119.408-66.144-184.582-66.144c-74.411,0-145.927,26.869-205.662,73.582
		c-59.733,46.713-107.688,113.271-134.972,192.641c-38.031,105.828-44.646,209.588-30.178,306.94
		c14.47,97.353,50.021,188.302,96.319,268.498c-4.133,5.789-7.439,13.229-9.508,21.496c-2.066,8.269-2.893,17.362-2.066,26.456
		c0.826,24.804,11.574,47.126,28.317,63.249c16.741,16.121,39.478,26.044,64.282,26.044h1.653h1.654
		c25.63-0.825,48.366-11.987,64.488-29.351c16.122-17.364,25.63-40.925,24.801-66.555c-0.825-24.805-11.573-47.13-28.315-63.25
		c-16.741-16.121-39.479-26.045-64.281-26.045h-1.653h-1.654c-1.653,0-3.719,0-5.787,0.207c-2.067,0.208-4.134,0.621-5.788,1.449
		c-33.896-56.223-57.874-114.924-72.135-176.107c-14.262-61.18-18.812-124.841-13.85-190.983
		c3.309-49.608,13.229-95.907,29.558-138.694c16.329-42.783,39.065-82.057,68.002-117.607
		c23.978-30.591,59.116-53.326,96.114-68.622c36.997-15.297,75.855-23.15,107.273-23.978c65.73-1.24,116.426,27.007,154.628,67.482
		c38.199,40.472,63.903,93.168,79.651,140.828l0.043-0.013c16.242-14.227,37.5-22.866,60.788-22.866
		C988.529,329.236,993.677,329.697,998.694,330.541z M448.406,912.129c10.146-10.145,24.162-16.421,39.642-16.421
		c15.481,0,29.495,6.276,39.64,16.421s16.418,24.159,16.418,39.639s-6.273,29.496-16.418,39.639
		c-10.145,10.147-24.158,16.423-39.64,16.423c-15.479,0-29.495-6.275-39.642-16.423c-10.143-10.143-16.418-24.159-16.418-39.639
		S438.263,922.274,448.406,912.129z"/>
	<linearGradient id="SVGID_6_" gradientUnits="userSpaceOnUse" x1="890.4165" y1="421.6763" x2="1076.1343" y2="421.6763">
		<stop  offset="0" style="stop-color:#F15B61"/>
		<stop  offset="0.058" style="stop-color:#DC5B69"/>
		<stop  offset="0.1928" style="stop-color:#B65979"/>
		<stop  offset="0.3296" style="stop-color:#955787"/>
		<stop  offset="0.4657" style="stop-color:#795691"/>
		<stop  offset="0.6012" style="stop-color:#615599"/>
		<stop  offset="0.7358" style="stop-color:#4D549E"/>
		<stop  offset="0.8692" style="stop-color:#3E54A2"/>
		<stop  offset="1" style="stop-color:#3953A5"/>
	</linearGradient>
	<path fill="url(#SVGID_6_)" d="M983.276,328.817c-51.285,0-92.859,41.575-92.859,92.86c0,51.284,41.574,92.858,92.859,92.858
		c51.283,0,92.858-41.574,92.858-92.858C1076.134,370.392,1034.559,328.817,983.276,328.817z M982.741,478.167
		c-31.198,0-56.489-25.292-56.489-56.49c0-31.197,25.291-56.487,56.489-56.487c31.197,0,56.488,25.29,56.488,56.487
		C1039.229,452.875,1013.938,478.167,982.741,478.167z"/>
</g>
<g>
</g>
<g>
</g>
<g>
</g>
<g>
</g>
<g>
</g>
<g>
</g>
</svg>
